<!--?xml version="1.0" standalone="no"?-->
<svg id="sw-js-blob-svg" viewBox="0 0 100 100"
    xmlns="http://www.w3.org/2000/svg">
    <defs>
        <linearGradient id="sw-gradient" x1="0" x2="1" y1="1" y2="0">
            <stop id="stop1" stop-color="rgba(248, 117, 55, 1)" offset="0%"></stop>
            <stop id="stop2" stop-color="rgba(251, 168, 31, 1)" offset="100%"></stop>
        </linearGradient>
    </defs>
    <path fill="url(#sw-gradient)" d="M20.7,-37.6C26,-32.8,29,-25.6,32.5,-19C36,-12.3,39.9,-6.2,40.8,0.5C41.7,7.2,39.5,14.4,35,19.2C30.5,24,23.6,26.5,17.4,27.4C11.2,28.2,5.6,27.3,-0.9,28.9C-7.4,30.4,-14.8,34.5,-22,34.2C-29.2,34,-36.2,29.5,-40,23.1C-43.8,16.6,-44.3,8.3,-43.2,0.7C-42,-7,-39.1,-13.9,-33.5,-17.2C-27.9,-20.6,-19.7,-20.3,-13.7,-24.7C-7.7,-29.1,-3.8,-38.2,1.9,-41.6C7.7,-44.9,15.4,-42.4,20.7,-37.6Z" width="100%" height="100%" transform="translate(50 50)" stroke-width="0" style="transition: all 0.3s ease 0s;"></path>
</svg>