<!--?xml version="1.0" standalone="no"?-->
<svg id="sw-js-blob-svg" viewBox="0 0 100 100"
    xmlns="http://www.w3.org/2000/svg">
    <defs>
        <linearGradient id="sw-gradient" x1="0" x2="1" y1="1" y2="0">
            <stop id="stop1" stop-color="rgba(117.049, 20.19, 216.806, 1)" offset="0%"></stop>
            <stop id="stop2" stop-color="rgba(8.823, 145.551, 239.575, 1)" offset="100%"></stop>
        </linearGradient>
    </defs>
    <path fill="url(#sw-gradient)" d="M17.6,-29.8C24.5,-26.5,32.9,-25.2,35.8,-20.5C38.6,-15.9,36,-8,33.3,-1.5C30.7,4.9,28.1,9.8,25.6,15.1C23.1,20.5,20.8,26.3,16.6,30.1C12.4,33.9,6.2,35.7,0.6,34.6C-4.9,33.6,-9.9,29.6,-15.8,26.8C-21.8,24,-28.7,22.3,-31.8,18C-34.8,13.7,-34.1,6.9,-34.2,-0.1C-34.4,-7,-35.5,-14.1,-32.7,-18.9C-29.9,-23.7,-23.3,-26.2,-17.2,-30C-11.1,-33.7,-5.5,-38.7,-0.1,-38.5C5.3,-38.3,10.7,-33.1,17.6,-29.8Z" width="100%" height="100%" transform="translate(50 50)" stroke-width="0" style="transition: all 0.3s ease 0s;" stroke="url(#sw-gradient)"></path>
</svg>