<svg id="Group_2" data-name="Group 2" xmlns="http://www.w3.org/2000/svg" xmlns:xlink="http://www.w3.org/1999/xlink" width="284.541" height="86.438" viewBox="0 0 284.541 86.438">
  <defs>
    <clipPath id="clip-path">
      <rect id="Rectangle_2" data-name="Rectangle 2" width="284.541" height="86.438" fill="none"/>
    </clipPath>
  </defs>
  <g id="Group_1" data-name="Group 1" transform="translate(0 0)" clip-path="url(#clip-path)">
    <path id="Path_1" data-name="Path 1" d="M349.535,17.012a11.367,11.367,0,0,1,2.483-7.107,6.167,6.167,0,0,0,1.4-3.833V5.893A5.894,5.894,0,0,0,347.53,0h-.179a6.167,6.167,0,0,0-3.833,1.4,11.362,11.362,0,0,1-7.107,2.483A11.358,11.358,0,0,1,329.305,1.4,6.171,6.171,0,0,0,325.472,0h-.179A5.893,5.893,0,0,0,319.4,5.893v.179a6.166,6.166,0,0,0,1.4,3.833,11.41,11.41,0,0,1,0,14.213,6.17,6.17,0,0,0-1.4,3.834v.179a5.893,5.893,0,0,0,5.893,5.893h.179a6.171,6.171,0,0,0,3.834-1.4,11.41,11.41,0,0,1,14.213,0,6.167,6.167,0,0,0,3.833,1.4h.179a5.893,5.893,0,0,0,5.893-5.893v-.179a6.171,6.171,0,0,0-1.4-3.834,11.363,11.363,0,0,1-2.483-7.106" transform="translate(-71.919 0)" fill="#e50f3e"/>
    <rect id="Rectangle_1" data-name="Rectangle 1" width="56.954" height="8.594" transform="matrix(0.001, -1, 1, 0.001, 0, 85.259)" fill="#00126a"/>
    <path id="Path_2" data-name="Path 2" d="M34.728,72.152l-.033,25.362L26.38,97.5l.056-42.716,7.982.011-.009,6.952h.528a12.175,12.175,0,0,1,4.637-5.444,14.307,14.307,0,0,1,7.97-2.049,15.509,15.509,0,0,1,7.645,1.832,12.368,12.368,0,0,1,5.082,5.416,19.6,19.6,0,0,1,1.8,8.874L62.031,97.55l-8.315-.011.034-26.169A10.326,10.326,0,0,0,51.34,64.1,8.585,8.585,0,0,0,44.7,61.458,10.324,10.324,0,0,0,39.565,62.7a8.9,8.9,0,0,0-3.536,3.652,12.089,12.089,0,0,0-1.3,5.8" transform="translate(-5.94 -12.218)" fill="#00126a"/>
    <path id="Path_3" data-name="Path 3" d="M106.04,50.14l-.009,6.675-24.138-.032.009-6.675ZM88.463,92.833l.062-47.666a11.849,11.849,0,0,1,1.762-6.657,10.854,10.854,0,0,1,4.649-3.971,14.944,14.944,0,0,1,6.286-1.313,19.646,19.646,0,0,1,4.282.409,20.311,20.311,0,0,1,2.641.741L106.19,41.1q-.582-.166-1.5-.4a9.022,9.022,0,0,0-2.224-.24q-3.031,0-4.327,1.5a6.466,6.466,0,0,0-1.3,4.337l-.061,46.553Z" transform="translate(-18.44 -7.481)" fill="#00126a"/>
    <path id="Path_4" data-name="Path 4" d="M139.291,98.513a19.611,19.611,0,0,1-10.48-2.767,18.563,18.563,0,0,1-6.942-7.713,25.558,25.558,0,0,1-2.46-11.571A25.8,25.8,0,0,1,121.9,64.841a18.521,18.521,0,0,1,6.962-7.722,21.339,21.339,0,0,1,20.969.027,18.534,18.534,0,0,1,6.942,7.74,25.811,25.811,0,0,1,2.459,11.628,25.553,25.553,0,0,1-2.49,11.565,18.571,18.571,0,0,1-6.963,7.695,19.616,19.616,0,0,1-10.488,2.739m.037-6.98a9.96,9.96,0,0,0,6.454-2.049,12.149,12.149,0,0,0,3.8-5.473,23.508,23.508,0,0,0,.021-15.06,12.333,12.333,0,0,0-3.79-5.525,9.877,9.877,0,0,0-6.448-2.1,9.983,9.983,0,0,0-6.5,2.078,12.285,12.285,0,0,0-3.817,5.514,23.542,23.542,0,0,0-.02,15.06,12.108,12.108,0,0,0,3.8,5.483,10.066,10.066,0,0,0,6.491,2.066" transform="translate(-26.887 -12.245)" fill="#00126a"/>
    <path id="Path_5" data-name="Path 5" d="M182.72,97.684l.056-42.716,8.037.01-.009,6.786h.445a10.377,10.377,0,0,1,4.136-5.432,11.778,11.778,0,0,1,6.719-1.98q.778,0,1.849.057t1.683.142l-.011,7.954a16.259,16.259,0,0,0-1.779-.322A18.224,18.224,0,0,0,201.288,62a10.866,10.866,0,0,0-5.244,1.23,9.288,9.288,0,0,0-4.975,8.378l-.034,26.085Z" transform="translate(-41.143 -12.239)" fill="#00126a"/>
    <path id="Path_6" data-name="Path 6" d="M224.675,36.822l14.85.019L255.16,75.128h.667l15.735-38.245,14.85.019-.074,56.954-11.68-.016.048-37.07h-.472L259.446,93.542l-7.954-.011L236.8,56.582h-.473l-.048,37.209L224.6,93.775Z" transform="translate(-50.573 -8.291)" fill="#00126a"/>
    <path id="Path_7" data-name="Path 7" d="M335.74,98.739a22.646,22.646,0,0,1-11.329-2.7,18.15,18.15,0,0,1-7.29-7.629,25.107,25.107,0,0,1-2.543-11.7,24.98,24.98,0,0,1,2.573-11.565,18.9,18.9,0,0,1,7.228-7.75,20.961,20.961,0,0,1,10.947-2.766,22.619,22.619,0,0,1,7.882,1.36,17.767,17.767,0,0,1,6.391,4.054,18.472,18.472,0,0,1,4.261,6.777,27.076,27.076,0,0,1,1.516,9.527l0,3.254L319.3,79.557l.009-7.342,24.917.033a9.073,9.073,0,0,0-1.106-4.534,8.094,8.094,0,0,0-3.069-3.106,8.963,8.963,0,0,0-4.545-1.132,9.122,9.122,0,0,0-4.771,1.231,8.88,8.88,0,0,0-3.244,3.305,9.421,9.421,0,0,0-1.2,4.6l-.009,6.98a11.867,11.867,0,0,0,1.175,5.48,8.45,8.45,0,0,0,3.346,3.564,10.116,10.116,0,0,0,5.143,1.258,11.165,11.165,0,0,0,3.616-.551,7.526,7.526,0,0,0,2.811-1.664,7.26,7.26,0,0,0,1.782-2.724l10.956.738a14.942,14.942,0,0,1-3.415,6.878,17.107,17.107,0,0,1-6.625,4.552,24.859,24.859,0,0,1-9.332,1.615" transform="translate(-70.834 -12.301)" fill="#00126a"/>
  </g>
</svg>
