<svg xmlns="http://www.w3.org/2000/svg" xmlns:xlink="http://www.w3.org/1999/xlink" width="202.552" height="49.83" viewBox="0 0 202.552 49.83">
  <defs>
    <linearGradient id="linear-gradient" x1="0.596" y1="0.384" x2="0" y2="1.027" gradientUnits="objectBoundingBox">
      <stop offset="0" stop-color="#002be5"/>
      <stop offset="1" stop-color="#00a9e7"/>
    </linearGradient>
  </defs>
  <g id="Group_52" data-name="Group 52" transform="translate(-2476.994 272.76)">
    <g id="Group_7" data-name="Group 7" transform="translate(2530.493 -256.451)">
      <path id="Path_8" data-name="Path 8" d="M254.554,123.661h-3.583a3.3,3.3,0,0,0-1.177-2.171,3.723,3.723,0,0,0-2.428-.788,3.831,3.831,0,0,0-3.118,1.427,7.585,7.585,0,0,0,.009,8.118,4.167,4.167,0,0,0,5.482.654,3.248,3.248,0,0,0,1.232-2.081l3.583.017a6.6,6.6,0,0,1-1.1,2.895,6.788,6.788,0,0,1-2.464,2.2,7.7,7.7,0,0,1-3.708.842,7.878,7.878,0,0,1-4-1.014,7.15,7.15,0,0,1-2.78-2.935,11.086,11.086,0,0,1,.013-9.314,7.2,7.2,0,0,1,2.794-2.93,7.862,7.862,0,0,1,3.975-1.01,8.273,8.273,0,0,1,3.5.716,6.417,6.417,0,0,1,2.55,2.076,6.846,6.846,0,0,1,1.224,3.3" transform="translate(-239.484 -117.57)" fill="#0f1d56"/>
      <path id="Path_9" data-name="Path 9" d="M304.534,126.174a9.709,9.709,0,0,1-1.037,4.66,7.217,7.217,0,0,1-2.809,2.932,8.423,8.423,0,0,1-8,0,7.213,7.213,0,0,1-2.806-2.939,11.034,11.034,0,0,1,0-9.309,7.193,7.193,0,0,1,2.806-2.931,8.439,8.439,0,0,1,8,0,7.208,7.208,0,0,1,2.809,2.931,9.714,9.714,0,0,1,1.037,4.661m-3.591,0a6.247,6.247,0,0,0-1.161-4.069,4.109,4.109,0,0,0-6.182,0,7.7,7.7,0,0,0,0,8.132,4.1,4.1,0,0,0,6.182,0,6.242,6.242,0,0,0,1.161-4.063" transform="translate(-271.27 -117.572)" fill="#0f1d56"/>
      <path id="Path_10" data-name="Path 10" d="M340.972,118.212h4.368l4.611,11.251h.2l4.611-11.251h4.367v16.746H355.69v-10.9h-.139l-4.333,10.818h-2.341l-4.332-10.858h-.139v10.94h-3.435Z" transform="translate(-304.832 -117.983)" fill="#0f1d56"/>
      <path id="Path_11" data-name="Path 11" d="M401.447,134.958V118.212h6.609a6.754,6.754,0,0,1,3.246.724,5.008,5.008,0,0,1,2.048,2,6,6,0,0,1,.707,2.948,5.866,5.866,0,0,1-.72,2.939,5,5,0,0,1-2.081,1.987,7,7,0,0,1-3.292.715h-2.976v5.43Zm3.542-8.267h2.4a3.007,3.007,0,0,0,2.27-.781,2.8,2.8,0,0,0,.746-2.023,2.759,2.759,0,0,0-.746-2.015,3.072,3.072,0,0,0-2.286-.765h-2.387Z" transform="translate(-343.772 -117.983)" fill="#0f1d56"/>
      <path id="Path_12" data-name="Path 12" d="M454.432,118.212h3.515v11.072a5.364,5.364,0,0,1-3.348,5.224,9.749,9.749,0,0,1-7.191,0,5.559,5.559,0,0,1-2.456-2.007,5.624,5.624,0,0,1-.889-3.217V118.212H447.6V129.16a2.54,2.54,0,0,0,.97,2.109,3.786,3.786,0,0,0,2.432.769,3.827,3.827,0,0,0,2.456-.769,2.546,2.546,0,0,0,.969-2.109Z" transform="translate(-371.213 -117.983)" fill="#0f1d56"/>
      <path id="Path_13" data-name="Path 13" d="M500.071,122.618a2.063,2.063,0,0,0-.848-1.538,3.338,3.338,0,0,0-2.014-.547,3.232,3.232,0,0,0-1.994.532,1.617,1.617,0,0,0-.7,1.341,1.45,1.45,0,0,0,.773,1.361,6.7,6.7,0,0,0,1.876.715l1.5.359a9.871,9.871,0,0,1,2.589.949,4.968,4.968,0,0,1,1.782,1.6,4.193,4.193,0,0,1,.65,2.376,4.45,4.45,0,0,1-1.722,3.659,7.49,7.49,0,0,1-4.778,1.361,7.8,7.8,0,0,1-4.865-1.389,5.014,5.014,0,0,1-1.88-4.1h3.424a2.381,2.381,0,0,0,1,1.892,3.879,3.879,0,0,0,2.285.634,3.647,3.647,0,0,0,2.155-.573,1.774,1.774,0,0,0,.814-1.488,1.476,1.476,0,0,0-.745-1.308,7.3,7.3,0,0,0-2.1-.784l-1.822-.458a7.534,7.534,0,0,1-3.344-1.611,3.755,3.755,0,0,1-1.219-2.952,4.4,4.4,0,0,1,.813-2.661,5.407,5.407,0,0,1,2.261-1.775,8.05,8.05,0,0,1,3.271-.633,7.759,7.759,0,0,1,3.259.637,5.14,5.14,0,0,1,2.171,1.775,4.693,4.693,0,0,1,.8,2.632Z" transform="translate(-401.08 -117.573)" fill="#0f1d56"/>
      <path id="Path_14" data-name="Path 14" d="M535.175,134.96H531.38l5.782-16.745h4.563L547.5,134.96H543.7l-1.243-3.818h-6.042Zm2.143-6.582h4.25l-2.059-6.336h-.131Z" transform="translate(-427.436 -117.985)" fill="#0f1d56"/>
      <path id="Path_15" data-name="Path 15" d="M578.574,118.212l4.048,12.723h.153l4.056-12.723h3.926l-5.773,16.746h-4.562l-5.783-16.746Z" transform="translate(-455.292 -117.983)" fill="#0f1d56"/>
      <path id="Path_16" data-name="Path 16" d="M626.279,134.958V118.212h11.284v2.92h-7.744v3.989h7.163v2.92h-7.163v4H637.6v2.919Z" transform="translate(-488.542 -117.984)" fill="#0f1d56"/>
    </g>
    <g id="Group_51" data-name="Group 51" transform="translate(2476.994 -272.76)">
      <path id="Path_428" data-name="Path 428" d="M36.041,2.08l0-.008-.1.085a16.576,16.576,0,0,1-11.025,4.19A16.577,16.577,0,0,1,13.89,2.157l-.1-.085,0,.008A8.3,8.3,0,0,0,2.08,13.79l-.008,0,.085.1a16.575,16.575,0,0,1,4.19,11.025A16.576,16.576,0,0,1,2.157,35.94l-.085.1.008,0A8.3,8.3,0,0,0,13.79,47.75l0,.008.1-.085a16.6,16.6,0,0,1,22.051,0l.1.085,0-.008A8.3,8.3,0,0,0,47.75,36.04l.008,0-.085-.1a16.6,16.6,0,0,1,0-22.051l.085-.1-.008,0A8.3,8.3,0,0,0,36.041,2.08" transform="translate(49.831 49.83) rotate(180)" fill="url(#linear-gradient)"/>
      <path id="Path_430" data-name="Path 430" d="M99.632,126.514c-.312-10.014,14.254-11.477,15.955-3.071l-3.025.944c-1-5.038-9.786-4.476-9.609,2.148-.259,6.482,8.508,7.224,9.721,2.152l2.991.935c-1.927,8.455-16.365,7.1-16.033-3.108" transform="translate(-89.722 -101.614)" fill="#fff"/>
      <path id="Path_431" data-name="Path 431" d="M158.261,123.306c-.008-2.573-5.347-3.5-5.574-.269-.21,1.869,2.729,2.062,4.075,2.351,2.994.606,4.584,2.59,4.57,4.939-.219,7.224-12.285,6.293-12.5-.148l2.978-.78c-.278,3.123,5.926,4.678,6.267,1.12.006-.963-.71-1.72-1.986-1.986-3.108-.411-6.743-1.672-6.587-5.28.246-6.906,11.032-6.492,11.643-.819Z" transform="translate(-121.406 -101.717)" fill="#fff"/>
    </g>
  </g>
</svg>
